# AST/ASF file generated using VICON BodyLanguage
# -----------------------------------------------
:version 1.10
:name VICON
:units
  mass 1.0
  length 0.45
  angle deg
:documentation
   .ast/.asf automatically generated from VICON data using
   VICON BodyBuilder and BodyLanguage model FoxedUp or BRILLIANT.MOD
:root
   order TX TY TZ RX RY RZ
   axis XYZ
   position 0 0 0  
   orientation 0 0 0 
:bonedata
  begin
     id 1 
     name lhipjoint
     direction 0.62366 -0.717238 0.310833 
     length 2.53602 
     axis 0 0 0  XYZ
  end
  begin
     id 2 
     name lfemur
     direction 0.34202 -0.939693 0  
     length 7.40817  
     axis 0 0 20  XYZ
    dof rx ry rz
    limits (-160.0 20.0)
           (-70.0 70.0)
           (-60.0 70.0)
  end
  begin
     id 3 
     name ltibia
     direction 0.34202 -0.939693 0   
     length 7.7045   
     axis 0 0 20   XYZ
    dof rx
    limits (-10.0 170.0)
  end
  begin
     id 4 
     name lfoot
     direction 0.0673888 -0.185149 0.980397   
     length 2.09456   
     axis -90 7.62852e-016 20   XYZ
    dof rx rz
    limits (-45.0 90.0)
           (-70.0 20.0)
  end
  begin
     id 5 
     name ltoes
     direction 1.53575e-011 -4.21994e-011 1   
     length 1.05543   
     axis -90 7.62852e-016 20   XYZ
    dof rx
    limits (-90.0 20.0)
  end
  begin
     id 6 
     name rhipjoint
     direction -0.489018 -0.800347 0.346851   
     length 2.27268  
     axis 0 0 0  XYZ 
  end
  begin
     id 7 
     name rfemur
     direction -0.34202 -0.939693 0   
     length 7.55487   
     axis 0 0 -20   XYZ
    dof rx ry rz
    limits (-160.0 20.0)
           (-70.0 70.0)
           (-70.0 60.0)
  end
  begin
     id 8 
     name rtibia
     direction -0.34202 -0.939693 0   
     length 7.78969   
     axis 0 0 -20   XYZ
    dof rx
    limits (-10.0 170.0)
 end
 begin
     id 9 
     name rfoot
     direction -0.0859318 -0.236096 0.967923   
     length 2.19143  
     axis -90 -7.62852e-016 -20   XYZ
    dof rx rz
    limits (-45.0 90.0)
           (-20.0 70.0)
  end
  begin
     id 10 
     name rtoes
     direction -1.53538e-011 -4.21989e-011 1   
     length 1.09845   
     axis -90 -7.62852e-016 -20   XYZ
    dof rx
    limits (-90.0 20.0)
  end
  begin
     id 11 
     name lowerback
     direction -0.00762546 0.998978 -0.0445553   
     length 1.98161   
     axis 0 0 0   XYZ
    dof rx ry rz
    limits (-20.0 45.0)
           (-30.0 30.0)
           (-30.0 30.0)
  end
  begin
     id 12 
     name upperback
     direction 0.0422361 0.998867 -0.0219156   
     length 1.97558   
     axis 0 0 0   XYZ
    dof rx ry rz
    limits (-20.0 45.0)
           (-30.0 30.0)
           (-30.0 30.0)
  end
  begin
     id 13 
     name thorax
     direction 0.0442465 0.999021 7.47603e-005   
     length 1.97799   
     axis 0 0 0   XYZ
    dof rx ry rz
    limits (-20.0 45.0)
           (-30.0 30.0)
           (-30.0 30.0)
  end
  begin
     id 14 
     name lowerneck
     direction 0.00312169 0.984641 0.174564   
     length 1.78995   
     axis 0 0 0   XYZ
    dof rx ry rz
    limits (-20.0 45.0)
           (-30.0 30.0)
           (-30.0 30.0)
  end
  begin
     id 15 
     name upperneck
     direction -0.0383028 0.985255 -0.166749   
     length 1.83053   
     axis 0 0 0   XYZ
    dof rx ry rz
    limits (-20.0 45.0)
           (-30.0 30.0)
           (-30.0 30.0)
  end
  begin
     id 16
     name head
     direction -0.0129546 0.997059 -0.0755386  
     length 1.84088  
     axis 0 0 0   XYZ
    dof rx ry rz
    limits (-20.0 45.0)
           (-30.0 30.0)
           (-30.0 30.0)
  end
  begin
     id 17 
     name lclavicle
     direction 0.912857 0.370519 -0.171488  
     length 3.51279  
     axis 0 0 0   XYZ
    dof ry rz
    limits (-20.0 10.0)
           (0.0 20.0)
  end
  begin
     id 18 
     name lhumerus
     direction 1 -4.48962e-011 3.64361e-027   
     length 4.95663   
     axis 180 -30 -90   XYZ
    dof rx ry rz
    limits (-60.0 90.0)
           (-90.0 90.0)
           (-90.0 90.0)
  end
  begin
     id 19
     name lradius
     direction 1 -4.48974e-011 5.97202e-027   
     length 3.38177   
     axis 180 -30 -90   XYZ
    dof rx
    limits (-10.0 170.0)
  end
  begin
     id 20
     name lwrist
     direction 1 -4.4896e-011 9.83288e-027   
     length 1.69088   
     axis -9.31221e-015 90 90   XYZ
    dof ry
    limits (-180.0 0.0)
 end
  begin
     id 21 
     name lhand
     direction 1 -4.4902e-011 1.96551e-026   
     length 0.662909   
     axis -1.25475e-014 90 90   XYZ
    dof rx rz
    limits (-90.0 90.0)
           (-45.0 45.0)
  end
  begin
     id 22 
     name lfingers
     direction 1 -4.48971e-011 3.93277e-026   
     length 0.534454   
     axis -2.50945e-014 90 90   XYZ
    dof rx
    limits (0.0 90.0)
  end
  begin
     id 23
     name lthumb
     direction 0.707107 -6.34933e-011 0.707107   
     length 0.767373   
     axis -90 45 -4.80359e-014   XYZ
    dof rx rz
    limits (-45.0 45.0)
           (-45.0 45.0)
  end
  begin
     id 24 
     name rclavicle
     direction -0.900919 0.395364 -0.178976   
     length 3.40627  
     axis 0 0 0   XYZ 
    dof ry rz
    limits (-10.0 20.0)
           (-20.0 0.0)
  end
  begin
     id 25 
     name rhumerus
     direction -1 -4.48969e-011 1.03875e-027  
     length 5.08365   
     axis 180 30 90   XYZ
    dof rx ry rz
    limits (-90.0 60.0)
           (-90.0 90.0)
           (-90.0 90.0)
  end
  begin
     id 26 
     name rradius
     direction -1 -4.48951e-011 5.02733e-027   
     length 3.35984   
     axis 180 30 90   XYZ
    dof rx
    limits (-10.0 170.0)
  end
  begin
     id 27 
     name rwrist
     direction -1 -4.49011e-011 9.82828e-027   
     length 1.67992   
     axis -9.31221e-015 -90 -90   XYZ
    dof ry
    limits (-180.0 0.0)
  end
  begin
     id 28
     name rhand
     direction -1 -4.48894e-011 1.96774e-026   
     length 0.820764   
     axis -1.25475e-014 -90 -90   XYZ
    dof rx rz
    limits (-90.0 90.0)
           (-45.0 45.0)
  end
  begin
     id 29
     name rfingers
     direction -1 -4.49095e-011 3.92833e-026   
     length 0.661721   
     axis -2.50945e-014 -90 -90   XYZ
    dof rx
    limits (0.0 90.0)
  end
  begin
     id 30
     name rthumb
     direction -0.707107 -6.34881e-011 0.707107   
     length 0.950103   
     axis -90 -45 4.80359e-014   XYZ
    dof rx rz
    limits (-45.0 45.0)
           (-45.0 45.0)
  end
:hierarchy
  begin
    root lhipjoint rhipjoint lowerback
    lhipjoint lfemur
    lfemur ltibia
    ltibia lfoot
    lfoot ltoes
    rhipjoint rfemur
    rfemur rtibia
    rtibia rfoot
    rfoot rtoes
    lowerback upperback
    upperback thorax
    thorax lowerneck lclavicle rclavicle
    lowerneck upperneck
    upperneck head
    lclavicle lhumerus
    lhumerus lradius
    lradius lwrist
    lwrist lhand lthumb
    lhand lfingers
    rclavicle rhumerus
    rhumerus rradius
    rradius rwrist
    rwrist rhand rthumb
    rhand rfingers
  end

#!OML:ASF I:\golf\golf\golf 2\Subject 1\2002-09-07\Subject1.ASF
:FULLY-SPECIFIED
:DEGREES
39
root 0.395547 17.9194 -5.4402 9.02956 -5.06553 -4.93433
lowerback -8.67097 0.647321 -1.86228
upperback -1.85695 0.907771 3.56619
thorax 2.84694 0.4308 4.8612
lowerneck -20.004 -0.310595 1.03079
upperneck 28.7681 0.426597 -3.85928
head 12.9687 -0.238718 -1.60354
rclavicle 1.11816e-014 -3.53837e-014
rhumerus -30.9302 -3.26566 -84.2155
rradius 24.7986
rwrist -6.67348
rhand -20.497 12.7995
rfingers 7.12502
rthumb 5.86001 -17.0995
lclavicle 1.11816e-014 -3.53837e-014
lhumerus -29.446 -2.50346 91.0818
lradius 22.6086
lwrist 0.0479903
lhand -9.4049 33.3268
lfingers 7.12502
lthumb 16.5566 62.6405
rfemur -15.5552 3.92022 19.9036
rtibia 28.7356
rfoot -15.5946 -8.08994
rtoes -3.08385
lfemur -14.4645 1.31819 -13.6133
ltibia 29.394
lfoot -17.0613 9.08511
ltoes -13.2571
40
root 0.398363 17.9202 -5.44234 9.03371 -5.08041 -5.01183
lowerback -8.63978 0.650379 -1.75226
upperback -1.84138 0.900323 3.60303
thorax 2.84774 0.427499 4.8359
lowerneck -19.9755 -0.294645 0.951936
upperneck 28.7914 0.459236 -3.80073
head 12.9733 -0.224964 -1.56198
rclavicle -2.45499e-014 1.35174e-014
rhumerus -30.8993 -3.16673 -84.2013
rradius 24.7791
rwrist -6.79491
rhand -20.5604 12.7501
rfingers 7.12502
rthumb 5.79878 -17.1505
lclavicle -2.45499e-014 1.35174e-014
lhumerus -29.4439 -2.4833 91.1148
lradius 22.6477
lwrist 0.0404279
lhand -9.42654 33.3067
lfingers 7.12502
lthumb 16.5358 62.6221
rfemur -15.5594 3.83984 19.9766
rtibia 28.7201
rfoot -15.6628 -7.97779
rtoes -2.66472
lfemur -14.4736 1.37229 -13.5511
ltibia 29.4063
lfoot -17.0557 9.11217
ltoes -13.2224
41
root 0.398822 17.9202 -5.44276 9.02919 -5.12048 -4.93534
lowerback -8.67333 0.6432 -1.82366
upperback -1.8054 0.897147 3.58335
thorax 2.90321 0.423816 4.85703
lowerneck -19.9403 -0.285303 1.01885
upperneck 28.7618 0.474215 -3.88113
head 12.9545 -0.221678 -1.60134
rclavicle -1.64929e-014 -3.57812e-015
rhumerus -30.8619 -3.16685 -84.2071
rradius 24.7569
rwrist -6.7649
rhand -20.7595 12.659
rfingers 7.12502
rthumb 5.6066 -17.2468
lclavicle -1.64929e-014 -3.57812e-015
lhumerus -29.4485 -2.5559 91.1388
lradius 22.7146
lwrist 0.139361
lhand -9.53754 33.1079
lfingers 7.12502
lthumb 16.4289 62.4322
rfemur -15.5563 3.76927 19.8887
rtibia 28.6988
rfoot -15.6647 -7.90514
rtoes -2.43976
lfemur -14.4803 1.35297 -13.6403
ltibia 29.4266
lfoot -17.0078 9.14163
ltoes -13.3034
42
root 0.397016 17.92 -5.44371 9.06167 -5.10051 -4.8998
lowerback -8.73208 0.621127 -1.8823
upperback -1.78039 0.872827 3.57766
thorax 2.96336 0.409675 4.88375
lowerneck -19.925 -0.295688 1.07769
upperneck 28.7317 0.456925 -3.94178
head 12.9385 -0.230914 -1.63716
rclavicle 1.22998e-015 6.36111e-015
rhumerus -30.8073 -3.29562 -84.1657
rradius 24.7117
rwrist -6.61551
rhand -20.7978 12.6991
rfingers 7.12502
rthumb 5.56954 -17.2077
lclavicle 1.22998e-015 6.36111e-015
lhumerus -29.4314 -2.64478 91.1638
lradius 22.7483
lwrist 0.223813
lhand -9.63484 32.8618
lfingers 7.12502
lthumb 16.3353 62.1939
rfemur -15.5833 3.73904 19.8583
rtibia 28.6798
rfoot -15.6109 -7.87408
rtoes -2.3743
lfemur -14.5366 1.31803 -13.6621
ltibia 29.44
lfoot -16.9849 9.12248
ltoes -13.3437
43
root 0.396417 17.9194 -5.44432 9.03568 -5.10075 -4.93376
lowerback -8.6896 0.617064 -1.86449
upperback -1.76314 0.86476 3.59687
thorax 2.95844 0.405568 4.89223
lowerneck -19.8977 -0.286462 1.07584
upperneck 28.724 0.469602 -3.93844
head 12.9301 -0.224838 -1.63302
rclavicle -1.15978e-014 -1.63003e-014
rhumerus -30.8139 -3.34399 -84.1246
rradius 24.7055
rwrist -6.56114
rhand -20.6776 12.7372
rfingers 7.12502
rthumb 5.68563 -17.1665
lclavicle -1.15978e-014 -1.63003e-014
lhumerus -29.4432 -2.6272 91.1717
lradius 22.7558
lwrist 0.153737
lhand -9.63841 32.7766
lfingers 7.12502
lthumb 16.3318 62.1089
rfemur -15.5434 3.73308 19.8935
rtibia 28.6622
rfoot -15.5328 -7.85179
rtoes -3.01016
lfemur -14.5092 1.30685 -13.6216
ltibia 29.4386
lfoot -16.9755 9.14125
ltoes -13.5961
44
root 0.396617 17.9199 -5.44358 8.97912 -5.11992 -4.93375
lowerback -8.65324 0.615732 -1.88253
upperback -1.7256 0.863476 3.60876
thorax 2.97689 0.403806 4.91471
lowerneck -19.8371 -0.258434 1.09443
upperneck 28.6738 0.505139 -3.94708
head 12.898 -0.20756 -1.63204
rclavicle 3.32219e-014 -5.20816e-014
rhumerus -30.8252 -3.29386 -84.1167
rradius 24.7148
rwrist -6.6218
rhand -20.5 12.8616
rfingers 7.12502
rthumb 5.85713 -17.0375
lclavicle 3.32219e-014 -5.20816e-014
lhumerus -29.4635 -2.69701 91.2085
lradius 22.7991
lwrist 0.213367
lhand -9.62103 32.7985
lfingers 7.12502
lthumb 16.3486 62.1294
rfemur -15.4554 3.70084 19.8921
rtibia 28.6266
rfoot -15.446 -7.85444
rtoes -3.93994
lfemur -14.4468 1.34014 -13.6229
ltibia 29.4487
lfoot -16.9603 9.12567
ltoes -13.7991
45
root 0.395751 17.9213 -5.44332 8.96827 -5.11162 -4.93918
lowerback -8.64867 0.601662 -1.91596
upperback -1.70259 0.846515 3.63214
thorax 2.99905 0.394197 4.95693
lowerneck -19.7838 -0.24453 1.09755
upperneck 28.6176 0.521878 -3.94507
head 12.8644 -0.198844 -1.62737
rclavicle -5.10007e-015 1.70955e-014
rhumerus -30.7982 -3.29403 -84.0847
rradius 24.6683
rwrist -6.64059
rhand -20.3875 13.0842
rfingers 7.12502
rthumb 5.96573 -16.8118
lclavicle -5.10007e-015 1.70955e-014
lhumerus -29.5051 -2.80315 91.272
lradius 22.8671
lwrist 0.354312
lhand -9.64999 32.7722
lfingers 7.12502
lthumb 16.3207 62.1054
rfemur -15.4097 3.69025 19.9082
rtibia 28.5796
rfoot -15.4917 -7.80737
rtoes -3.13992
lfemur -14.4469 1.35685 -13.6078
ltibia 29.4722
lfoot -16.9419 9.09844
ltoes -13.9416
46
root 0.3953 17.9227 -5.44442 8.98514 -5.116 -5.02003
lowerback -8.61213 0.606549 -1.84372
upperback -1.71452 0.84582 3.6564
thorax 2.96716 0.395187 4.94008
lowerneck -19.7306 -0.23657 1.1147
upperneck 28.602 0.526195 -3.94289
head 12.8471 -0.194249 -1.62796
rclavicle 3.62782e-015 4.21423e-014
rhumerus -30.8281 -3.34727 -84.0536
rradius 24.6681
rwrist -6.6295
rhand -20.3494 13.1745
rfingers 7.12502
rthumb 6.00253 -16.7204
lclavicle 3.62782e-015 4.21423e-014
lhumerus -29.5837 -2.8598 91.3087
lradius 22.9129
lwrist 0.374414
lhand -9.68688 32.7547
lfingers 7.12502
lthumb 16.2852 62.0908
rfemur -15.4018 3.70743 20.0077
rtibia 28.5353
rfoot -15.5408 -7.81139
rtoes -2.55451
lfemur -14.4761 1.32457 -13.5186
ltibia 29.5035
lfoot -16.9375 9.14854
ltoes -14.175
47
root 0.395165 17.9239 -5.44717 8.99837 -5.12039 -5.1026
lowerback -8.55773 0.615747 -1.76315
upperback -1.7276 0.850283 3.67995
thorax 2.92377 0.39904 4.91783
lowerneck -19.6734 -0.236613 1.11682
upperneck 28.5936 0.527448 -3.9501
head 12.8318 -0.193968 -1.63024
rclavicle 1.21569e-014 0
rhumerus -30.884 -3.39072 -84.0301
rradius 24.7144
rwrist -6.59328
rhand -20.3259 13.1996
rfingers 7.12502
rthumb 6.02514 -16.6948
lclavicle 1.21569e-014 0
lhumerus -29.6403 -2.83809 91.3176
lradius 22.8875
lwrist 0.40641
lhand -9.77289 32.5431
lfingers 7.12502
lthumb 16.2023 61.886
rfemur -15.3993 3.71011 20.1084
rtibia 28.4894
rfoot -15.4864 -7.90876
rtoes -3.35223
lfemur -14.5164 1.34312 -13.4315
ltibia 29.5501
lfoot -16.9649 9.16297
ltoes -14.2251
48
root 0.395001 17.9235 -5.45031 8.97858 -5.12299 -5.13859
lowerback -8.48785 0.606737 -1.75058
upperback -1.71142 0.835776 3.71294
thorax 2.90283 0.391962 4.94252
lowerneck -19.7169 -0.22896 1.0825
upperneck 28.6706 0.555965 -3.96027
head 12.8735 -0.187417 -1.62556
rclavicle -1.23371e-014 1.66979e-014
rhumerus -30.8834 -3.31469 -84.0218
rradius 24.763
rwrist -6.59036
rhand -20.3225 13.1861
rfingers 7.12502
rthumb 6.02848 -16.7082
lclavicle -1.23371e-014 1.66979e-014
lhumerus -29.6426 -2.77873 91.3355
lradius 22.8399
lwrist 0.460894
lhand -9.8545 32.29
lfingers 7.12502
lthumb 16.1238 61.6393
rfemur -15.3686 3.75772 20.1432
rtibia 28.4438
rfoot -15.4574 -7.91837
rtoes -3.02017
lfemur -14.5278 1.3824 -13.3922
ltibia 29.601
lfoot -16.9813 9.16398
ltoes -14.2147
49
root 0.395175 17.9238 -5.45183 8.9653 -5.14085 -5.19302
lowerback -8.436 0.594844 -1.72137
upperback -1.68994 0.815668 3.75
thorax 2.89816 0.381795 4.96193
lowerneck -19.7813 -0.197431 1.05529
upperneck 28.7428 0.607126 -3.9412
head 12.9183 -0.166255 -1.60704
rclavicle -1.99406e-015 -3.97569e-016
rhumerus -30.8661 -3.14348 -84.0519
rradius 24.81
rwrist -6.66269
rhand -20.3574 13.1055
rfingers 7.12502
rthumb 5.99473 -16.7897
lclavicle -1.99406e-015 -3.97569e-016
lhumerus -29.6244 -2.74592 91.361
lradius 22.822
lwrist 0.445326
lhand -9.87286 32.296
lfingers 7.12502
lthumb 16.1061 61.6468
rfemur -15.3388 3.82824 20.1912
rtibia 28.4091
rfoot -15.4874 -7.89234
rtoes -2.32138
lfemur -14.5278 1.43561 -13.332
ltibia 29.6385
lfoot -17.005 9.1401
ltoes -13.9528
50
root 0.394928 17.9255 -5.45274 8.99224 -5.17922 -5.21364
lowerback -8.42341 0.583813 -1.73426
upperback -1.68531 0.801331 3.76949
thorax 2.8969 0.374415 4.98813
lowerneck -19.7633 -0.160795 1.04199
upperneck 28.702 0.650631 -3.90105
head 12.8991 -0.142706 -1.58094
rclavicle -1.44119e-015 -2.74323e-014
rhumerus -30.8329 -3.04876 -84.0791
rradius 24.7837
rwrist -6.67923
rhand -20.4338 13.1456
rfingers 7.12502
rthumb 5.92102 -16.7517
lclavicle -1.44119e-015 -2.74323e-014
lhumerus -29.6235 -2.70246 91.3648
lradius 22.8161
lwrist 0.458946
lhand -9.89891 32.2661
lfingers 7.12502
lthumb 16.081 61.6188
rfemur -15.3594 3.87827 20.2067
rtibia 28.3837
rfoot -15.5353 -7.87074
rtoes -2.30402
lfemur -14.558 1.50268 -13.309
ltibia 29.6594
lfoot -17.0621 9.06271
ltoes -13.618
51
root 0.394998 17.9264 -5.45402 9.02365 -5.24099 -5.17804
lowerback -8.42485 0.580255 -1.79346
upperback -1.67917 0.801925 3.7621
thorax 2.90325 0.374033 5.01438
lowerneck -19.7244 -0.139171 1.05656
upperneck 28.6383 0.671147 -3.88964
head 12.8655 -0.129848 -1.57402
rclavicle -4.45402e-015 -2.38542e-014
rhumerus -30.7754 -3.0259 -84.0975
rradius 24.7224
rwrist -6.69457
rhand -20.5203 13.3274
rfingers 7.12502
rthumb 5.8375 -16.5722
lclavicle -4.45402e-015 -2.38542e-014
lhumerus -29.6275 -2.65835 91.3516
lradius 22.8807
lwrist 0.37261
lhand -9.63434 32.5694
lfingers 7.12502
lthumb 16.3357 61.9013
rfemur -15.4046 3.89969 20.1533
rtibia 28.3653
rfoot -15.463 -7.86611
rtoes -3.07788
lfemur -14.5841 1.4933 -13.3613
ltibia 29.6695
lfoot -17.0672 9.1131
ltoes -13.8038
52
root 0.395884 17.926 -5.45383 9.01693 -5.29719 -5.14249
lowerback -8.44506 0.586158 -1.83776
upperback -1.63446 0.813128 3.75157
thorax 2.95932 0.377482 5.03102
lowerneck -19.7087 -0.131524 1.1275
upperneck 28.5763 0.679956 -3.96554
head 12.8375 -0.128101 -1.61279
rclavicle -2.36057e-016 4.6118e-014
rhumerus -30.6859 -2.99111 -84.119
rradius 24.6856
rwrist -6.79451
rhand -20.5422 13.4228
rfingers 7.12502
rthumb 5.81633 -16.4774
lclavicle -2.36057e-016 4.6118e-014
lhumerus -29.5769 -2.57848 91.3194
lradius 22.9202
lwrist 0.183291
lhand -9.24304 32.9917
lfingers 7.12502
lthumb 16.7125 62.2923
rfemur -15.401 3.86824 20.0975
rtibia 28.3579
rfoot -15.3699 -7.85561
rtoes -3.763
lfemur -14.5581 1.45982 -13.4221
ltibia 29.6665
lfoot -17.0489 9.21445
ltoes -14.0288
53
root 0.396594 17.9254 -5.45438 8.97278 -5.3254 -5.11812
lowerback -8.42656 0.58213 -1.89356
upperback -1.57627 0.811247 3.76043
thorax 3.00872 0.374125 5.07265
lowerneck -19.6494 -0.111338 1.18094
upperneck 28.4753 0.705925 -4.02274
head 12.7851 -0.117526 -1.63727
rclavicle 1.45982e-015 5.68524e-014
rhumerus -30.6096 -2.91835 -84.1357
rradius 24.7023
rwrist -6.87871
rhand -20.5448 13.3677
rfingers 7.12502
rthumb 5.81388 -16.5326
lclavicle 1.45982e-015 5.68524e-014
lhumerus -29.5263 -2.53242 91.3127
lradius 22.8447
lwrist 0.190456
lhand -9.3253 32.7968
lfingers 7.12502
lthumb 16.6333 62.104
rfemur -15.357 3.85199 20.0639
rtibia 28.3614
rfoot -15.4674 -7.82394
rtoes -3.05963
lfemur -14.5062 1.4588 -13.4586
ltibia 29.6555
lfoot -17.0342 9.23459
ltoes -14.0637
